<svg width="1400" height="420" viewBox="0 0 1400 420" fill="none" xmlns="http://www.w3.org/2000/svg">
  <rect width="1400" height="420" rx="20" fill="#EEF3F9"/>
  <text x="48" y="62" fill="#2F363D" font-family="Arial, sans-serif" font-size="34" font-weight="700">Task State Workflow</text>

  <rect x="56" y="120" width="230" height="120" rx="18" fill="#DDE4EF"/>
  <text x="128" y="188" fill="#2F4F83" font-family="Arial, sans-serif" font-size="46" font-weight="700">Todo</text>

  <rect x="406" y="120" width="290" height="120" rx="18" fill="#D7E4FB"/>
  <text x="444" y="172" fill="#2F4F83" font-family="Arial, sans-serif" font-size="34" font-weight="700">In Progress</text>
  <text x="444" y="210" fill="#5C6874" font-family="Arial, sans-serif" font-size="24">Session / Block / Pause</text>

  <rect x="816" y="120" width="250" height="120" rx="18" fill="#DDE4EF"/>
  <text x="848" y="188" fill="#2F4F83" font-family="Arial, sans-serif" font-size="42" font-weight="700">Completed</text>

  <rect x="1138" y="120" width="214" height="120" rx="18" fill="#E4EEF8"/>
  <text x="1180" y="178" fill="#2F4F83" font-family="Arial, sans-serif" font-size="34" font-weight="700">Markdown</text>
  <text x="1186" y="212" fill="#5C6874" font-family="Arial, sans-serif" font-size="24">Export</text>

  <path d="M286 180H386" stroke="#3F5F92" stroke-width="8" stroke-linecap="round"/>
  <path d="M378 168L398 180L378 192" stroke="#3F5F92" stroke-width="8" stroke-linecap="round" stroke-linejoin="round"/>
  <text x="296" y="156" fill="#6B7480" font-family="Arial, sans-serif" font-size="22">开始</text>

  <path d="M696 180H796" stroke="#3F5F92" stroke-width="8" stroke-linecap="round"/>
  <path d="M788 168L808 180L788 192" stroke="#3F5F92" stroke-width="8" stroke-linecap="round" stroke-linejoin="round"/>
  <text x="720" y="156" fill="#6B7480" font-family="Arial, sans-serif" font-size="22">完成</text>

  <path d="M1066 180H1118" stroke="#3F5F92" stroke-width="8" stroke-linecap="round"/>
  <path d="M1110 168L1130 180L1110 192" stroke="#3F5F92" stroke-width="8" stroke-linecap="round" stroke-linejoin="round"/>
  <text x="1068" y="156" fill="#6B7480" font-family="Arial, sans-serif" font-size="22">导出 MD</text>

  <rect x="424" y="284" width="252" height="78" rx="14" fill="#F6E5DA"/>
  <text x="454" y="332" fill="#83533C" font-family="Arial, sans-serif" font-size="30" font-weight="700">Block Session</text>

  <rect x="706" y="284" width="230" height="78" rx="14" fill="#DFF0E6"/>
  <text x="746" y="332" fill="#35654D" font-family="Arial, sans-serif" font-size="30" font-weight="700">Pause / Resume</text>

  <path d="M550 240V272" stroke="#7C8796" stroke-width="5" stroke-linecap="round"/>
  <path d="M820 240V272" stroke="#7C8796" stroke-width="5" stroke-linecap="round"/>
  <path d="M550 272H820" stroke="#7C8796" stroke-width="5" stroke-linecap="round"/>
  <text x="586" y="268" fill="#6B7480" font-family="Arial, sans-serif" font-size="20">In Progress 内部状态</text>
</svg>
